<?xml version="1.0" encoding="UTF-8"?><svg id="Layer_1" xmlns="http://www.w3.org/2000/svg" viewBox="0 0 101.59 101.59"><defs><style>.cls-1{fill:#3a4b65;}</style></defs><path class="cls-1" d="M13.84,0C6.2,0,0,6.2,0,13.84H9.23c0-2.55,2.07-4.61,4.61-4.61V0ZM87.74,9.23c2.55,0,4.61,2.07,4.61,4.61h9.23c0-7.65-6.2-13.84-13.84-13.84V9.23Zm4.61,78.51c0,2.55-2.07,4.61-4.61,4.61v9.23c7.65,0,13.84-6.2,13.84-13.84h-9.23Zm-78.51,4.61c-2.55,0-4.61-2.07-4.61-4.61H0c0,7.65,6.2,13.84,13.84,13.84v-9.23Zm-4.61-4.61V13.84H0V87.74H9.23Zm78.51,4.61H13.84v9.23H87.74v-9.23Zm4.61-78.51V87.74h9.23V13.84h-9.23ZM13.84,9.23H87.74V0H13.84V9.23Z"/><path class="cls-1" d="M52.34,32.32c0,9.35,7.58,16.93,16.93,16.93v-9.23c-4.25,0-7.7-3.45-7.7-7.7h-9.23Zm16.93-16.93c-9.35,0-16.93,7.58-16.93,16.93h9.23c0-4.25,3.45-7.7,7.7-7.7V15.39Zm16.93,16.93c0-9.35-7.58-16.93-16.93-16.93v9.23c4.25,0,7.7,3.45,7.7,7.7h9.23Zm-16.93,16.93c9.35,0,16.93-7.58,16.93-16.93h-9.23c0,4.25-3.45,7.7-7.7,7.7v9.23Z"/><path class="cls-1" d="M44.15,64.81c7.95,2.82,14.28,8.97,17.34,16.83l8.6-3.35c-4.03-10.37-12.38-18.46-22.86-22.18l-3.09,8.7Zm-24.07,2.14c7.33-4.18,16.12-4.96,24.07-2.14l3.09-8.7c-10.48-3.72-22.06-2.69-31.73,2.82l4.57,8.02Z"/><path class="cls-1" d="M63.68,74.39c5.04-4.6,12.71-4.76,17.95-.38l5.92-7.08c-8.78-7.34-21.63-7.07-30.09,.64l6.22,6.82Z"/></svg>