<svg width="120" height="120" viewBox="0 0 120 120" fill="none" xmlns="http://www.w3.org/2000/svg">
<path fill-rule="evenodd" clip-rule="evenodd" d="M92.9369 90.0188C94.6496 90.0106 96.2491 89.1619 97.216 87.7482C98.2091 86.309 98.478 84.4902 97.9437 82.8252C92.1023 67.0376 76.8255 56.749 60 57.271C43.1785 56.7537 27.9073 67.0415 22.0672 82.8252C21.5295 84.4899 21.7986 86.3102 22.7949 87.7482C23.7602 89.1618 25.3586 90.0107 27.0703 90.0188H92.9369Z" stroke="#394A64" stroke-width="1.5"/>
<path d="M68.1869 38.1682C68.1869 33.6467 64.5215 29.9813 60 29.9813C55.4785 29.9813 51.8131 33.6467 51.8131 38.1682C51.8131 42.6897 55.4785 46.3551 60 46.3551V57.271" stroke="#394A64" stroke-width="1.5"/>
</svg>
