<?xml version="1.0" encoding="UTF-8"?><svg id="Layer_1" xmlns="http://www.w3.org/2000/svg" viewBox="0 0 103 32"><defs><style>.cls-1{fill:#fff;}.cls-2{fill:#5e469c;}</style></defs><path class="cls-2" d="M0,4C0,1.79,1.79,0,4,0H99c2.21,0,4,1.79,4,4V28c0,2.21-1.79,4-4,4H4c-2.21,0-4-1.79-4-4V4Z"/><path class="cls-1" d="M42.98,13.67c-.04-.37-.21-.66-.5-.87-.29-.21-.67-.31-1.14-.31-.33,0-.61,.05-.85,.15-.24,.1-.42,.23-.54,.4-.12,.17-.19,.36-.19,.58,0,.18,.04,.34,.12,.47,.09,.13,.2,.25,.35,.34,.14,.09,.31,.17,.48,.23,.18,.06,.35,.12,.53,.16l.82,.2c.33,.08,.65,.18,.95,.31,.31,.13,.58,.3,.82,.49,.24,.2,.44,.44,.58,.72,.14,.28,.21,.61,.21,.99,0,.51-.13,.96-.39,1.35-.26,.39-.64,.69-1.13,.91-.49,.22-1.09,.32-1.79,.32s-1.27-.11-1.77-.32c-.5-.21-.89-.52-1.17-.92-.28-.4-.43-.89-.45-1.47h1.56c.02,.3,.12,.56,.28,.76,.16,.2,.38,.35,.64,.45,.27,.1,.57,.15,.89,.15s.64-.05,.9-.15c.26-.11,.47-.25,.61-.43,.15-.19,.22-.41,.23-.66,0-.23-.07-.41-.2-.56-.13-.15-.31-.28-.55-.38-.23-.1-.51-.19-.82-.27l-.99-.26c-.72-.18-1.29-.46-1.7-.84-.41-.38-.62-.88-.62-1.5,0-.51,.14-.96,.42-1.35,.28-.39,.66-.69,1.15-.9,.48-.22,1.03-.32,1.64-.32s1.16,.11,1.63,.32c.47,.21,.84,.51,1.1,.89,.27,.38,.4,.81,.41,1.3h-1.52Zm4.87,6.46c-.41,0-.79-.07-1.12-.22-.33-.15-.59-.37-.78-.66-.19-.29-.29-.65-.29-1.08,0-.37,.07-.67,.2-.92,.14-.24,.32-.43,.56-.58,.24-.14,.5-.25,.8-.33,.3-.08,.61-.13,.92-.17,.38-.04,.69-.08,.93-.11,.24-.03,.41-.09,.52-.15,.11-.07,.17-.18,.17-.33v-.03c0-.32-.1-.57-.29-.75-.19-.18-.46-.26-.82-.26-.38,0-.68,.08-.9,.25-.22,.16-.37,.36-.44,.58l-1.44-.2c.11-.4,.3-.73,.56-1,.26-.27,.58-.47,.96-.61,.38-.14,.8-.2,1.25-.2,.32,0,.63,.04,.94,.11,.31,.07,.6,.2,.86,.37,.26,.17,.47,.4,.62,.69,.16,.29,.24,.65,.24,1.09v4.38h-1.48v-.9h-.05c-.09,.18-.23,.35-.4,.51-.17,.16-.38,.28-.63,.38-.25,.09-.55,.14-.89,.14Zm.4-1.13c.31,0,.58-.06,.81-.18,.23-.12,.4-.29,.52-.49,.12-.2,.19-.43,.19-.67v-.77s-.13,.08-.25,.11c-.11,.03-.24,.06-.38,.09-.14,.03-.28,.05-.42,.07-.14,.02-.26,.04-.36,.05-.23,.03-.44,.08-.62,.15-.18,.07-.33,.17-.43,.3-.11,.12-.16,.29-.16,.49,0,.28,.1,.5,.31,.64,.21,.14,.47,.22,.79,.22Zm10.22-5.54l-2.33,6.55h-1.7l-2.33-6.55h1.64l1.5,4.86h.07l1.51-4.86h1.64Zm3.74,6.67c-.66,0-1.22-.14-1.7-.41-.47-.28-.84-.66-1.1-1.17-.26-.51-.38-1.1-.38-1.79s.13-1.26,.38-1.77c.26-.51,.62-.91,1.08-1.19,.46-.29,1.01-.43,1.63-.43,.4,0,.78,.07,1.14,.2,.36,.13,.68,.33,.95,.6,.28,.27,.5,.61,.66,1.03,.16,.41,.24,.91,.24,1.48v.47h-5.37v-1.04h3.89c0-.3-.07-.56-.19-.79-.12-.23-.3-.42-.52-.55-.22-.13-.48-.2-.78-.2-.32,0-.59,.08-.83,.23-.24,.15-.42,.35-.56,.6-.13,.24-.2,.51-.2,.81v.91c0,.38,.07,.71,.21,.98,.14,.27,.33,.48,.58,.62,.25,.14,.54,.21,.88,.21,.22,0,.43-.03,.61-.09,.18-.07,.34-.16,.47-.29,.13-.12,.23-.28,.3-.46l1.44,.16c-.09,.38-.26,.71-.52,1-.25,.28-.58,.5-.97,.66-.39,.15-.85,.23-1.36,.23Z"/></svg>