<?xml version="1.0" encoding="UTF-8"?><svg id="Layer_1" xmlns="http://www.w3.org/2000/svg" viewBox="0 0 128 32"><defs><style>.cls-1{fill:#fff;}.cls-2{fill:#5e469c;}</style></defs><path class="cls-2" d="M0,4C0,1.79,1.79,0,4,0H124c2.21,0,4,1.79,4,4V28c0,2.21-1.79,4-4,4H4c-2.21,0-4-1.79-4-4V4Z"/><path class="cls-1" d="M28.57,12.6v-1.33h6.96v1.33h-2.7v7.4h-1.57v-7.4h-2.7Zm9.23,7.53c-.41,0-.79-.07-1.12-.22-.33-.15-.59-.37-.78-.66-.19-.29-.29-.65-.29-1.08,0-.37,.07-.67,.2-.92,.14-.24,.32-.43,.56-.58,.24-.14,.5-.25,.8-.33,.3-.08,.61-.13,.92-.17,.38-.04,.69-.08,.93-.11,.24-.03,.41-.09,.52-.15,.11-.07,.17-.18,.17-.33v-.03c0-.32-.1-.57-.29-.75-.19-.18-.46-.26-.82-.26-.38,0-.68,.08-.9,.25-.22,.16-.37,.36-.44,.58l-1.44-.2c.11-.4,.3-.73,.56-1,.26-.27,.58-.47,.96-.61,.38-.14,.8-.2,1.25-.2,.32,0,.63,.04,.94,.11,.31,.07,.6,.2,.86,.37,.26,.17,.47,.4,.62,.69,.16,.29,.24,.65,.24,1.09v4.38h-1.48v-.9h-.05c-.09,.18-.23,.35-.4,.51-.17,.16-.38,.28-.63,.38-.25,.09-.55,.14-.89,.14Zm.4-1.13c.31,0,.58-.06,.81-.18,.23-.12,.4-.29,.52-.49,.12-.2,.19-.43,.19-.67v-.77s-.13,.08-.25,.11c-.11,.03-.24,.06-.38,.09-.14,.03-.28,.05-.42,.07-.14,.02-.26,.04-.36,.05-.23,.03-.44,.08-.62,.15-.18,.07-.33,.17-.43,.3-.11,.12-.16,.29-.16,.49,0,.28,.1,.5,.31,.64,.21,.14,.47,.22,.79,.22Zm6.01-1.05v-1.86h.24l2.35-2.63h1.8l-2.89,3.22h-.32l-1.18,1.27Zm-1.41,2.05V11.27h1.54v8.73h-1.54Zm4.11,0l-2.13-2.98,1.04-1.09,2.94,4.07h-1.85Zm5.35,.13c-.66,0-1.22-.14-1.7-.41-.47-.28-.84-.66-1.1-1.17-.26-.51-.38-1.1-.38-1.79s.13-1.26,.38-1.77c.26-.51,.62-.91,1.08-1.19,.46-.29,1.01-.43,1.63-.43,.4,0,.78,.07,1.14,.2,.36,.13,.68,.33,.95,.6,.28,.27,.5,.61,.66,1.03,.16,.41,.24,.91,.24,1.48v.47h-5.37v-1.04h3.89c0-.3-.07-.56-.19-.79-.12-.23-.3-.42-.52-.55-.22-.13-.48-.2-.78-.2-.32,0-.59,.08-.83,.23-.24,.15-.42,.35-.56,.6-.13,.24-.2,.51-.2,.81v.91c0,.38,.07,.71,.21,.98,.14,.27,.33,.48,.58,.62,.25,.14,.54,.21,.88,.21,.22,0,.43-.03,.61-.09,.18-.07,.34-.16,.47-.29,.13-.12,.23-.28,.3-.46l1.44,.16c-.09,.38-.26,.71-.52,1-.25,.28-.58,.5-.97,.66-.39,.15-.85,.23-1.36,.23Zm7.26-.13V11.27h3.27c.67,0,1.23,.12,1.69,.38,.46,.25,.8,.59,1.04,1.03,.24,.43,.35,.93,.35,1.48s-.12,1.06-.35,1.49-.58,.78-1.04,1.03c-.46,.25-1.03,.37-1.7,.37h-2.17v-1.3h1.96c.39,0,.71-.07,.96-.2,.25-.14,.43-.32,.55-.56,.12-.24,.18-.51,.18-.82s-.06-.58-.18-.82c-.12-.24-.31-.42-.56-.55-.25-.13-.57-.2-.97-.2h-1.45v7.41h-1.58Zm7.65,0v-6.55h1.54v6.55h-1.54Zm.78-7.47c-.24,0-.45-.08-.63-.24-.18-.16-.26-.36-.26-.59s.09-.43,.26-.59c.18-.16,.39-.25,.63-.25s.46,.08,.63,.25c.18,.16,.26,.36,.26,.59s-.09,.43-.26,.59c-.17,.16-.38,.24-.63,.24Zm5.21,7.6c-.65,0-1.21-.14-1.68-.43-.47-.29-.83-.68-1.08-1.19-.25-.51-.38-1.09-.38-1.76s.13-1.25,.38-1.76c.26-.51,.62-.91,1.08-1.19,.47-.29,1.02-.43,1.66-.43,.53,0,1,.1,1.41,.29,.41,.19,.74,.47,.98,.82,.24,.35,.38,.76,.42,1.24h-1.47c-.06-.32-.2-.58-.43-.79-.22-.21-.52-.32-.89-.32-.32,0-.59,.09-.83,.26-.24,.17-.42,.41-.56,.72-.13,.32-.2,.69-.2,1.13s.07,.83,.2,1.15c.13,.32,.31,.56,.55,.74,.24,.17,.52,.26,.84,.26,.23,0,.43-.04,.61-.13,.18-.09,.33-.21,.46-.38,.12-.16,.21-.36,.25-.6h1.47c-.04,.46-.17,.87-.41,1.23-.24,.36-.56,.63-.96,.84-.41,.2-.88,.3-1.43,.3Zm7.34-6.67v1.19h-3.76v-1.19h3.76Zm-2.83-1.57h1.54v6.14c0,.21,.03,.37,.09,.48,.07,.11,.15,.18,.26,.22,.11,.04,.22,.06,.35,.06,.1,0,.18,0,.26-.02,.08-.01,.14-.03,.19-.04l.26,1.21c-.08,.03-.2,.06-.35,.09-.15,.03-.34,.05-.55,.06-.39,.01-.73-.05-1.04-.17-.31-.13-.56-.33-.74-.61-.18-.27-.27-.61-.26-1.02v-6.4Zm8.3,5.36v-3.79h1.54v6.55h-1.5v-1.16h-.07c-.15,.37-.39,.67-.73,.9-.34,.23-.75,.35-1.24,.35-.43,0-.81-.1-1.14-.29-.33-.19-.58-.47-.77-.84-.18-.37-.28-.82-.28-1.34v-4.17h1.54v3.93c0,.41,.11,.74,.34,.99,.23,.24,.53,.37,.89,.37,.23,0,.45-.06,.66-.17,.21-.11,.39-.28,.52-.49,.14-.22,.21-.5,.21-.83Zm3.13,2.75v-6.55h1.5v1.09h.07c.12-.38,.32-.67,.61-.87,.29-.21,.63-.31,1-.31,.09,0,.18,0,.29,.01,.11,0,.2,.02,.27,.03v1.42c-.07-.02-.17-.04-.31-.06-.14-.02-.27-.03-.4-.03-.28,0-.53,.06-.76,.18-.22,.12-.4,.29-.52,.5-.13,.21-.19,.46-.19,.74v3.85h-1.54Zm7.39,.13c-.66,0-1.22-.14-1.7-.41-.47-.28-.84-.66-1.1-1.17-.26-.51-.38-1.1-.38-1.79s.13-1.26,.38-1.77c.26-.51,.62-.91,1.08-1.19,.46-.29,1.01-.43,1.63-.43,.4,0,.78,.07,1.14,.2,.36,.13,.68,.33,.95,.6,.28,.27,.5,.61,.66,1.03,.16,.41,.24,.91,.24,1.48v.47h-5.36v-1.04h3.89c0-.3-.07-.56-.19-.79-.12-.23-.3-.42-.52-.55-.22-.13-.48-.2-.78-.2-.32,0-.59,.08-.83,.23-.24,.15-.42,.35-.56,.6-.13,.24-.2,.51-.2,.81v.91c0,.38,.07,.71,.21,.98,.14,.27,.33,.48,.58,.62,.25,.14,.54,.21,.88,.21,.22,0,.43-.03,.61-.09,.18-.07,.34-.16,.47-.29s.23-.28,.3-.46l1.44,.16c-.09,.38-.26,.71-.52,1-.25,.28-.58,.5-.97,.66-.39,.15-.85,.23-1.36,.23Z"/></svg>